[Header]
FileType HTR
DataType HTRS
FileVersion 1
NumSegments 64
NumFrames 4
DataFrameRate 24
EulerRotationOrder ZYX
CalibrationUnits mm
RotationUnits Degrees
GlobalAxisofGravity Y
BoneLengthAxis Y
ScaleFactor 1.0
[SegmentNames&Hierarchy]
Hips	GLOBAL
Spine	Hips
Spine1	Spine
Spine2	Spine1
Neck	Spine2
Head	Neck
LeftEye	Head
RightEye	Head
LeftShoulder	Spine2
LeftArm	LeftShoulder
LeftForeArm	LeftArm
LeftHand	LeftForeArm
LeftHandThumb1	LeftHand
LeftHandThumb2	LeftHandThumb1
LeftHandThumb3	LeftHandThumb2
LeftHandThumb4	LeftHandThumb3
LeftHandIndex1	LeftHand
LeftHandIndex2	LeftHandIndex1
LeftHandIndex3	LeftHandIndex2
LeftHandIndex4	LeftHandIndex3
LeftHandMiddle1	LeftHand
LeftHandMiddle2	LeftHandMiddle1
LeftHandMiddle3	LeftHandMiddle2
LeftHandMiddle4	LeftHandMiddle3
LeftHandRing1	LeftHand
LeftHandRing2	LeftHandRing1
LeftHandRing3	LeftHandRing2
LeftHandRing4	LeftHandRing3
LeftHandPinky1	LeftHand
LeftHandPinky2	LeftHandPinky1
LeftHandPinky3	LeftHandPinky2
LeftHandPinky4	LeftHandPinky3
RightShoulder	Spine2
RightArm	RightShoulder
RightForeArm	RightArm
RightHand	RightForeArm
RightHandPinky1	RightHand
RightHandPinky2	RightHandPinky1
RightHandPinky3	RightHandPinky2
RightHandPinky4	RightHandPinky3
RightHandRing1	RightHand
RightHandRing2	RightHandRing1
RightHandRing3	RightHandRing2
RightHandRing4	RightHandRing3
RightHandMiddle1	RightHand
RightHandMiddle2	RightHandMiddle1
RightHandMiddle3	RightHandMiddle2
RightHandMiddle4	RightHandMiddle3
RightHandIndex1	RightHand
RightHandIndex2	RightHandIndex1
RightHandIndex3	RightHandIndex2
RightHandIndex4	RightHandIndex3
RightHandThumb1	RightHand
RightHandThumb2	RightHandThumb1
RightHandThumb3	RightHandThumb2
RightHandThumb4	RightHandThumb3
LeftUpLeg	Hips
LeftLeg	LeftUpLeg
LeftFoot	LeftLeg
LeftToeBase	LeftFoot
RightUpLeg	Hips
RightLeg	RightUpLeg
RightFoot	RightLeg
RightToeBase	RightFoot
[BasePosition]
Hips	0	0	0	0	0	0	1
Spine	0	0	0	0	0	0	1
Spine1	0	0	0	0	0	0	1
Spine2	0	0	0	0	0	0	1
Neck	0	0	0	0	0	0	1
Head	0	0	0	0	0	0	1
LeftEye	0	0	0	0	0	0	1
RightEye	0	0	0	0	0	0	1
LeftShoulder	0	0	0	0	0	0	1
LeftArm	0	0	0	0	0	0	1
LeftForeArm	0	0	0	0	0	0	1
LeftHand	0	0	0	0	0	0	1
LeftHandThumb1	0	0	0	0	0	0	1
LeftHandThumb2	0	0	0	0	0	0	1
LeftHandThumb3	0	0	0	0	0	0	1
LeftHandThumb4	0	0	0	0	0	0	1
LeftHandIndex1	0	0	0	0	0	0	1
LeftHandIndex2	0	0	0	0	0	0	1
LeftHandIndex3	0	0	0	0	0	0	1
LeftHandIndex4	0	0	0	0	0	0	1
LeftHandMiddle1	0	0	0	0	0	0	1
LeftHandMiddle2	0	0	0	0	0	0	1
LeftHandMiddle3	0	0	0	0	0	0	1
LeftHandMiddle4	0	0	0	0	0	0	1
LeftHandRing1	0	0	0	0	0	0	1
LeftHandRing2	0	0	0	0	0	0	1
LeftHandRing3	0	0	0	0	0	0	1
LeftHandRing4	0	0	0	0	0	0	1
LeftHandPinky1	0	0	0	0	0	0	1
LeftHandPinky2	0	0	0	0	0	0	1
LeftHandPinky3	0	0	0	0	0	0	1
LeftHandPinky4	0	0	0	0	0	0	1
RightShoulder	0	0	0	0	0	0	1
RightArm	0	0	0	0	0	0	1
RightForeArm	0	0	0	0	0	0	1
RightHand	0	0	0	0	0	0	1
RightHandPinky1	0	0	0	0	0	0	1
RightHandPinky2	0	0	0	0	0	0	1
RightHandPinky3	0	0	0	0	0	0	1
RightHandPinky4	0	0	0	0	0	0	1
RightHandRing1	0	0	0	0	0	0	1
RightHandRing2	0	0	0	0	0	0	1
RightHandRing3	0	0	0	0	0	0	1
RightHandRing4	0	0	0	0	0	0	1
RightHandMiddle1	0	0	0	0	0	0	1
RightHandMiddle2	0	0	0	0	0	0	1
RightHandMiddle3	0	0	0	0	0	0	1
RightHandMiddle4	0	0	0	0	0	0	1
RightHandIndex1	0	0	0	0	0	0	1
RightHandIndex2	0	0	0	0	0	0	1
RightHandIndex3	0	0	0	0	0	0	1
RightHandIndex4	0	0	0	0	0	0	1
RightHandThumb1	0	0	0	0	0	0	1
RightHandThumb2	0	0	0	0	0	0	1
RightHandThumb3	0	0	0	0	0	0	1
RightHandThumb4	0	0	0	0	0	0	1
LeftUpLeg	0	0	0	0	0	0	1
LeftLeg	0	0	0	0	0	0	1
LeftFoot	0	0	0	0	0	0	1
LeftToeBase	0	0	0	0	0	0	1
RightUpLeg	0	0	0	0	0	0	1
RightLeg	0	0	0	0	0	0	1
RightFoot	0	0	0	0	0	0	1
RightToeBase	0	0	0	0	0	0	1
[Hips]
394	136.1529694	977.8479004	-277.1694336	-8.865128517	32.80984879	-362.0760803	1.0
395	138.0957947	930.4841309	-274.8515625	-9.440145493	30.77193832	-365.1052551	1.0
396	136.9306335	873.6811523	-271.0153198	-10.17133236	28.67908859	-367.5344238	1.0
397	134.0813904	823.6383057	-266.7895813	-10.33778858	26.7895565	-367.7163086	1.0
[Spine]
394	0	101.8159943	1.315000057	15.99816513	-6.970367908	5.024522305	1.0
395	0	101.8159943	1.315000057	12.63323116	-4.025026321	10.36619568	1.0
396	0	101.8159943	1.315000057	11.38955688	0.5903521776	13.22423553	1.0
397	0	101.8159943	1.315000057	10.17180157	6.079546452	15.40744495	1.0
[Spine1]
394	0	100.8349991	-10.00800037	1.37806654	-0.466619581	-5.078759193	1.0
395	0	100.8349991	-10.00800037	1.601456523	-0.004175003618	-5.515045166	1.0
396	0	100.8349991	-10.00800037	1.712314963	0.567589879	-4.313011646	1.0
397	0	100.8349991	-10.00800037	3.827032089	1.507011533	-4.701547146	1.0
[Spine2]
394	0	91	-13.73399925	1.338323116	-0.6391176581	-5.072341919	1.0
395	0	91	-13.73399925	1.594734073	-0.1694840938	-5.516704559	1.0
396	0	91	-13.73399925	1.753291249	0.4403434694	-4.312580109	1.0
397	0	91	-13.73399925	3.94902277	1.335827708	-4.656534672	1.0
[Neck]
394	0	166.7169952	-25.16200066	1.564332128	8.383243561	-2.614746332	1.0
395	0	166.7169952	-25.16200066	1.434889793	8.133109093	-2.255319118	1.0
396	0	166.7169952	-25.16200066	0.2022911459	7.934079647	-2.37994957	1.0
397	0	166.7169952	-25.16200066	-3.458007097	7.66093111	-2.375977993	1.0
[Head]
394	0	96.17900085	16.84999847	3.929999828	38.86264801	-2.770180464	1.0
395	0	96.17900085	16.84999847	5.731052399	37.94262314	-1.861729622	1.0
396	0	96.17900085	16.84999847	6.331248283	36.78661728	-2.006284237	1.0
397	0	96.17900085	16.84999847	5.497370243	35.48865128	-2.331319571	1.0
[LeftEye]
394	30.6760006	64.09500122	92.83599854	0	0	0	1.0
395	30.6760006	64.09500122	92.83599854	0	0	0	1.0
396	30.6760006	64.09500122	92.83599854	0	0	0	1.0
397	30.6760006	64.09500122	92.83599854	0	0	0	1.0
[RightEye]
394	-30.6760006	64.09500122	92.83499908	0	0	0	1.0
395	-30.6760006	64.09500122	92.83499908	0	0	0	1.0
396	-30.6760006	64.09500122	92.83499908	0	0	0	1.0
397	-30.6760006	64.09500122	92.83499908	0	0	0	1.0
[LeftShoulder]
394	45.70400238	109.4599991	-26.28000069	0.3048891127	0.9219445586	-3.804163456	1.0
395	45.70400238	109.4599991	-26.28000069	0.1648965627	2.228992224	-5.067390919	1.0
396	45.70400238	109.4599991	-26.28000069	-0.06002211198	3.885531664	-8.165039063	1.0
397	45.70400238	109.4599991	-26.28000069	-0.7915128469	8.096980095	-9.802708626	1.0
[LeftArm]
394	105.923996	-5.24600029	-22.32099915	4.543518543	24.74898148	-1.433561087	1.0
395	105.923996	-5.24600029	-22.32099915	-1.023315787	33.14224243	-12.79499626	1.0
396	105.923996	-5.24600029	-22.32099915	-6.953715801	41.92237854	-24.76267815	1.0
397	105.923996	-5.24600029	-22.32099915	-12.94750595	46.29944229	-38.82574081	1.0
[LeftForeArm]
394	278.414978	-0.0009999999311	0	3.328051207e-06	-38.33951187	-0.0002085494343	1.0
395	278.414978	-0.0009999999311	0	2.25118265e-06	-39.12228775	-0.0002052047494	1.0
396	278.414978	-0.0009999999311	0	-6.347412182e-06	-42.12395096	-0.0002002993715	1.0
397	278.414978	-0.0009999999311	0	5.279530342e-06	-47.9274025	-0.0002000574023	1.0
[LeftHand]
394	283.2879944	0	0	6.051488876	21.11914444	23.17779541	1.0
395	283.2879944	0	0	-3.58407855	22.34140396	23.54460335	1.0
396	283.2879944	0	0	-17.42917633	28.02554512	22.59932899	1.0
397	283.2879944	0	0	-34.00490189	40.24940491	20.55779839	1.0
[LeftHandThumb1]
394	24.6609993	-15.75	26.8239994	-4.955357075	3.847492695	15.89135075	1.0
395	24.6609993	-15.75	26.8239994	-7.213794231	0.9258726835	17.24041367	1.0
396	24.6609993	-15.75	26.8239994	-9.508020401	-1.550523162	18.55851555	1.0
397	24.6609993	-15.75	26.8239994	-11.48966789	-3.690518141	19.53165245	1.0
[LeftHandThumb2]
394	32.29800034	-18.64699936	18.64699936	4.666303158	6.231190205	0.6950262189	1.0
395	32.29800034	-18.64699936	18.64699936	7.555198193	11.43655777	2.709806442	1.0
396	32.29800034	-18.64699936	18.64699936	10.73258114	16.74913597	5.347301006	1.0
397	32.29800034	-18.64699936	18.64699936	13.45606613	20.90062714	7.833286285	1.0
[LeftHandThumb3]
394	26.52600098	-15.31499958	15.31499958	-0.7294581532	1.384699225	2.789031744	1.0
395	26.52600098	-15.31499958	15.31499958	0.09956661612	2.841860533	2.771078587	1.0
396	26.52600098	-15.31499958	15.31499958	0.7497525811	4.068335056	2.838618279	1.0
397	26.52600098	-15.31499958	15.31499958	1.256998539	5.077469826	2.966935873	1.0
[LeftHandThumb4]
394	19.54599953	-11.28499985	11.28499985	0	0	0	1.0
395	19.54599953	-11.28499985	11.28499985	0	0	0	1.0
396	19.54599953	-11.28499985	11.28499985	0	0	0	1.0
397	19.54599953	-11.28499985	11.28499985	0	0	0	1.0
[LeftHandIndex1]
394	91.09299469	-5.170999527	22.60099792	-0.3493648767	-6.723813534	18.84386826	1.0
395	91.09299469	-5.170999527	22.60099792	-0.4654765129	-6.856545925	21.60014915	1.0
396	91.09299469	-5.170999527	22.60099792	-0.5818350315	-7.271602154	24.11601448	1.0
397	91.09299469	-5.170999527	22.60099792	-0.6364631653	-8.003804207	25.30568886	1.0
[LeftHandIndex2]
394	36.76399994	0	0	5.110196525e-06	6.752526133e-06	-1.253242408e-05	1.0
395	36.76399994	0	0	3.301375386e-07	1.416634404e-06	-1.348951082e-05	1.0
396	36.76399994	0	0	2.917356596e-06	-3.628509148e-06	-3.722211477e-05	1.0
397	36.76399994	0	0	2.861434496e-06	-3.78674963e-06	-2.378772115e-05	1.0
[LeftHandIndex3]
394	28.83100128	0	0	-0.04673948139	0.8010354042	-6.678467751	1.0
395	28.83100128	0	0	-0.04190487787	0.7586357594	-6.323402405	1.0
396	28.83100128	0	0	-0.03887567297	0.7307405472	-6.089885235	1.0
397	28.83100128	0	0	-0.03715437651	0.7144732475	-5.95389843	1.0
[LeftHandIndex4]
394	23.92700005	0	0	0	0	0	1.0
395	23.92700005	0	0	0	0	0	1.0
396	23.92700005	0	0	0	0	0	1.0
397	23.92700005	0	0	0	0	0	1.0
[LeftHandMiddle1]
394	95.33399963	0	0	-0.3843860626	-1.483224034	19.25263786	1.0
395	95.33399963	0	0	-0.456997633	-1.357184649	21.02409744	1.0
396	95.33399963	0	0	-0.5177805424	-1.166160107	22.41552353	1.0
397	95.33399963	0	0	-0.5301913619	-1.046288848	22.69657707	1.0
[LeftHandMiddle2]
394	36.98199844	0	0	1.643832888e-06	-6.899434811e-05	0.0001156022554	1.0
395	36.98199844	0	0	-5.398441658e-07	-7.262630243e-05	-5.204358604e-05	1.0
396	36.98199844	0	0	3.37836218e-06	-7.045854727e-05	-0.0001168014205	1.0
397	36.98199844	0	0	1.137140544e-06	-5.660016905e-05	0.0001099623405	1.0
[LeftHandMiddle3]
394	29.50900078	0	0	-0.03077183291	0.6502842307	-5.417316437	1.0
395	29.50900078	0	0	-0.02795736492	0.6199523211	-5.16389513	1.0
396	29.50900078	0	0	-0.02572055906	0.5946768522	-4.952839375	1.0
397	29.50900078	0	0	-0.02462154627	0.5818237662	-4.845650196	1.0
[LeftHandMiddle4]
394	28.3390007	0	0	0	0	0	1.0
395	28.3390007	0	0	0	0	0	1.0
396	28.3390007	0	0	0	0	0	1.0
397	28.3390007	0	0	0	0	0	1.0
[LeftHandRing1]
394	91.04499817	-0.4390000105	-18.65100098	-0.4783812165	2.212802172	21.97842979	1.0
395	91.04499817	-0.4390000105	-18.65100098	-0.5098873973	2.915990353	22.83525467	1.0
396	91.04499817	-0.4390000105	-18.65100098	-0.5086807013	4.064692497	23.11405373	1.0
397	91.04499817	-0.4390000105	-18.65100098	-0.4596869051	5.210890293	22.39644623	1.0
[LeftHandRing2]
394	31.54000092	0	0	-7.016191717e-07	-5.58096599e-06	-2.968178524e-05	1.0
395	31.54000092	0	0	4.947703474e-07	-6.500415566e-06	1.120721845e-05	1.0
396	31.54000092	0	0	-3.445790298e-06	-7.524203738e-06	2.197719004e-05	1.0
397	31.54000092	0	0	9.342150406e-06	-1.255994175e-05	-3.301631295e-05	1.0
[LeftHandRing3]
394	29.37700081	0	0	-0.02882536873	0.62951231	-5.24377203	1.0
395	29.37700081	0	0	-0.02787394822	0.619024992	-5.156213284	1.0
396	29.37700081	0	0	-0.02717207931	0.6112090349	-5.09087038	1.0
397	29.37700081	0	0	-0.02696485817	0.6087855697	-5.070542812	1.0
[LeftHandRing4]
394	26.47500038	0	0	0	0	0	1.0
395	26.47500038	0	0	0	0	0	1.0
396	26.47500038	0	0	0	0	0	1.0
397	26.47500038	0	0	0	0	0	1.0
[LeftHandPinky1]
394	80.77799988	-4.887000084	-38.06099701	-0.9900488853	10.75211334	34.09867477	1.0
395	80.77799988	-4.887000084	-38.06099701	-0.9619958997	12.07810402	34.2379837	1.0
396	80.77799988	-4.887000084	-38.06099701	-0.8393628001	14.31160736	33.48230362	1.0
397	80.77799988	-4.887000084	-38.06099701	-0.6319295764	16.66447449	31.64001083	1.0
[LeftHandPinky2]
394	36	0	0	0.01970483921	-4.051633835	-0.5329951048	1.0
395	36	0	0	0.01739904471	-4.055561543	-0.5003163218	1.0
396	36	0	0	0.0166102536	-4.056888103	-0.4891453087	1.0
397	36	0	0	0.01660696603	-4.056905746	-0.4891452193	1.0
[LeftHandPinky3]
394	21.14200211	0	0	-0.0158954151	0.4675897658	-3.89248991	1.0
395	21.14200211	0	0	-0.01586184651	0.4671438932	-3.888695955	1.0
396	21.14200211	0	0	-0.01583249494	0.4667622447	-3.885510683	1.0
397	21.14200211	0	0	-0.01584705524	0.4669359624	-3.886857748	1.0
[LeftHandPinky4]
394	19.75699997	0	0	0	0	0	1.0
395	19.75699997	0	0	0	0	0	1.0
396	19.75699997	0	0	0	0	0	1.0
397	19.75699997	0	0	0	0	0	1.0
[RightShoulder]
394	-45.70000076	109.4620056	-26.28000069	0.1165767908	5.933474064	-8.24139595	1.0
395	-45.70000076	109.4620056	-26.28000069	0.8433538675	4.749360561	2.020834684	1.0
396	-45.70000076	109.4620056	-26.28000069	0.8363881111	1.402882934	9.692987442	1.0
397	-45.70000076	109.4620056	-26.28000069	0.7614573836	-0.6440184116	20.14901733	1.0
[RightArm]
394	-105.9280014	-5.248000145	-22.32099915	-47.63444519	13.70963383	0.5778495669	1.0
395	-105.9280014	-5.248000145	-22.32099915	-47.92695236	24.72298241	1.014925718	1.0
396	-105.9280014	-5.248000145	-22.32099915	-42.19690323	37.21305466	10.67995548	1.0
397	-105.9280014	-5.248000145	-22.32099915	-31.24110413	48.9228363	21.75619125	1.0
[RightForeArm]
394	-278.414978	0	0	1.525878906e-05	105.2123795	3.051757813e-05	1.0
395	-278.414978	0	0	1.525878906e-05	110.625946	-3.503320689e-10	1.0
396	-278.414978	0	0	1.525878906e-05	116.9084625	-1.525913831e-05	1.0
397	-278.414978	0	0	1.525878906e-05	122.4378662	4.577636719e-05	1.0
[RightHand]
394	-283.2879944	0	0.0009999999311	28.43112564	6.511152744	-17.13858223	1.0
395	-283.2879944	0	0.0009999999311	27.38624001	8.261334419	-20.64961433	1.0
396	-283.2879944	0	0.0009999999311	22.83353806	14.40772057	-25.40346909	1.0
397	-283.2879944	0	0.0009999999311	18.76927757	24.307724	-29.46212959	1.0
[RightHandPinky1]
394	-80.76699829	-4.885000229	-38.06000137	-0.4662798345	-9.451590538	-24.265131	1.0
395	-80.76699829	-4.885000229	-38.06000137	-0.6037962437	-8.06797123	-26.36074257	1.0
396	-80.76699829	-4.885000229	-38.06000137	-0.7118433118	-7.129186153	-27.99178696	1.0
397	-80.76699829	-4.885000229	-38.06000137	-0.773866713	-6.673747063	-28.93014145	1.0
[RightHandPinky2]
394	-36	0	0.0009999999311	-1.691767573	-4.540342808	40.86792374	1.0
395	-36	0	0.0009999999311	-1.208398461	-3.913911819	34.31745529	1.0
396	-36	0	0.0009999999311	-0.5565717816	-2.724976301	23.09652138	1.0
397	-36	0	0.0009999999311	-0.1586148143	-1.476726651	12.27374935	1.0
[RightHandPinky3]
394	-21.14200211	0	0	-0.1008645445	-1.180116773	9.769875526	1.0
395	-21.14200211	0	0	-0.05782650411	-0.8949246407	7.392917156	1.0
396	-21.14200211	0	0	-0.01904226281	-0.5143229365	4.240821838	1.0
397	-21.14200211	0	0	-0.002890587784	-0.2005047351	1.651893735	1.0
[RightHandPinky4]
394	-19.75699997	0	0	0	0	0	1.0
395	-19.75699997	0	0	0	0	0	1.0
396	-19.75699997	0	0	0	0	0	1.0
397	-19.75699997	0	0	0	0	0	1.0
[RightHandRing1]
394	-91.03599548	-0.4390000105	-18.65100098	-0.2536150515	-0.6651656628	-15.72619343	1.0
395	-91.03599548	-0.4390000105	-18.65100098	-0.2776045501	-0.01468365826	-16.36193848	1.0
396	-91.03599548	-0.4390000105	-18.65100098	-0.3010320365	0.3169143498	-17.00478363	1.0
397	-91.03599548	-0.4390000105	-18.65100098	-0.3292351365	0.4073211253	-17.78089333	1.0
[RightHandRing2]
394	-31.54000092	0	0	-0.2461998463	-1.83376956	15.29167843	1.0
395	-31.54000092	0	0	-0.1493264586	-1.433258653	11.89421749	1.0
396	-31.54000092	0	0	-0.03561408445	-0.7029483914	5.800768375	1.0
397	-31.54000092	0	0	-0.0002065021254	-0.05341495946	0.439968884	1.0
[RightHandRing3]
394	-29.37700081	0	0	-4.538906574	-0.9258255363	7.648015976	1.0
395	-29.37700081	0	0	-3.774965525	-0.670984149	5.530438423	1.0
396	-29.37700081	0	0	-2.638714075	-0.3004534841	2.469992161	1.0
397	-29.37700081	0	0	-1.571395874	0.02251469344	-0.1917337179	1.0
[RightHandRing4]
394	-26.47500038	0	0	0	0	0	1.0
395	-26.47500038	0	0	0	0	0	1.0
396	-26.47500038	0	0	0	0	0	1.0
397	-26.47500038	0	0	0	0	0	1.0
[RightHandMiddle1]
394	-95.32500458	0	0	-0.02982358634	7.806585789	-8.555828094	1.0
395	-95.32500458	0	0	-0.01520953234	7.845125198	-7.823765755	1.0
396	-95.32500458	0	0	-0.01472486462	7.624919891	-7.622003555	1.0
397	-95.32500458	0	0	-0.03507234901	7.372488976	-8.514638901	1.0
[RightHandMiddle2]
394	-36.98199844	0	0	-0.03506256267	-0.6975684762	5.756197453	1.0
395	-36.98199844	0	0	-0.02217818238	-0.5549750328	4.576582432	1.0
396	-36.98199844	0	0	-0.004680356011	-0.2549596727	2.10071826	1.0
397	-36.98199844	0	0	-2.985920673e-06	-0.006212411448	0.05115077645	1.0
[RightHandMiddle3]
394	-29.50900078	0	0	-3.569900036	-0.2160068601	1.762223601	1.0
395	-29.50900078	0	0	-2.912120819	-0.08219500631	0.6578959823	1.0
396	-29.50900078	0	0	-1.90668726	0.1053993851	-0.8873295188	1.0
397	-29.50900078	0	0	-0.9829851985	0.2644238174	-2.197976828	1.0
[RightHandMiddle4]
394	-28.3390007	0	0.0009999999311	0	0	0	1.0
395	-28.3390007	0	0.0009999999311	0	0	0	1.0
396	-28.3390007	0	0.0009999999311	0	0	0	1.0
397	-28.3390007	0	0.0009999999311	0	0	0	1.0
[RightHandIndex1]
394	-91.08300018	-5.167999744	22.60099792	0.3218834698	17.13108635	3.204291582	1.0
395	-91.08300018	-5.167999744	22.60099792	0.2886208296	16.56377029	5.504395008	1.0
396	-91.08300018	-5.167999744	22.60099792	0.247195214	15.73882103	6.637597084	1.0
397	-91.08300018	-5.167999744	22.60099792	0.2332747579	15.07867813	5.504975319	1.0
[RightHandIndex2]
394	-36.76399994	0	0	1.601818622e-05	-0.003009215929	0.02480397001	1.0
395	-36.76399994	0	0	-1.01930118e-05	-0.003802546067	0.03130927309	1.0
396	-36.76399994	0	0	-3.766232567e-06	-0.002328252653	0.01914650574	1.0
397	-36.76399994	0	0	-4.446961157e-06	-0.0006812592619	0.005607197527	1.0
[RightHandIndex3]
394	-28.83100128	0	0	-0.009994084015	0.3728907108	-3.073216438	1.0
395	-28.83100128	0	0	-0.01365807559	0.4358170033	-3.592477798	1.0
396	-28.83100128	0	0	-0.01824319735	0.5036140084	-4.152255535	1.0
397	-28.83100128	0	0	-0.0211448241	0.5419946313	-4.469389439	1.0
[RightHandIndex4]
394	-23.92700005	0	0	0	0	0	1.0
395	-23.92700005	0	0	0	0	0	1.0
396	-23.92700005	0	0	0	0	0	1.0
397	-23.92700005	0	0	0	0	0	1.0
[RightHandThumb1]
394	-24.64799881	-15.72700024	26.82600021	-2.377435446	-10.81536007	-17.21638107	1.0
395	-24.64799881	-15.72700024	26.82600021	-0.5380045772	-11.00804138	-15.61557102	1.0
396	-24.64799881	-15.72700024	26.82600021	1.286369324	-11.48849583	-13.97539902	1.0
397	-24.64799881	-15.72700024	26.82600021	1.890581965	-11.55013943	-12.85449123	1.0
[RightHandThumb2]
394	-32.29800034	-18.64699936	18.64699936	2.044568062	0.3262805045	1.697176933	1.0
395	-32.29800034	-18.64699936	18.64699936	2.056336164	0.3256489635	1.71437943	1.0
396	-32.29800034	-18.64699936	18.64699936	2.082312822	0.332926631	1.722744584	1.0
397	-32.29800034	-18.64699936	18.64699936	2.114980698	0.3491379619	1.709093451	1.0
[RightHandThumb3]
394	-26.52600098	-15.31399918	15.31399918	-4.684631348	5.419106483	-3.244127512	1.0
395	-26.52600098	-15.31399918	15.31399918	-5.290534973	6.311841965	-3.488110304	1.0
396	-26.52600098	-15.31399918	15.31399918	-5.865878105	7.138157368	-3.738656759	1.0
397	-26.52600098	-15.31399918	15.31399918	-5.945039272	7.216061115	-3.776252747	1.0
[RightHandThumb4]
394	-19.54599953	-11.28499985	11.28499985	0	0	0	1.0
395	-19.54599953	-11.28499985	11.28499985	0	0	0	1.0
396	-19.54599953	-11.28499985	11.28499985	0	0	0	1.0
397	-19.54599953	-11.28499985	11.28499985	0	0	0	1.0
[LeftUpLeg]
394	82.07800293	-67.51699829	-15.99599934	-3.333790541	16.95165825	-1.508422136	1.0
395	82.07800293	-67.51699829	-15.99599934	-1.632990479	18.32732582	-6.866331577	1.0
396	82.07800293	-67.51699829	-15.99599934	-1.274906993	13.17903233	-10.18537903	1.0
397	82.07800293	-67.51699829	-15.99599934	-1.247096896	15.48977947	-10.51090813	1.0
[LeftLeg]
394	0	-443.7049866	2.845999956	54.22994995	8.460814476	-5.013240814	1.0
395	0	-443.7049866	2.845999956	46.73117447	3.920057535	-10.33517647	1.0
396	0	-443.7049866	2.845999956	46.81629181	9.150251389	-4.78181982	1.0
397	0	-443.7049866	2.845999956	50.27430344	5.437668324	-8.964959145	1.0
[LeftFoot]
394	0	-444.2789917	-29.8219986	-1.599151969	5.873571396	-11.15237331	1.0
395	0	-444.2789917	-29.8219986	-11.51505756	26.37529945	0.142062068	1.0
396	0	-444.2789917	-29.8219986	-35.82703018	32.95433807	1.699915648	1.0
397	0	-444.2789917	-29.8219986	-54.14110184	35.89215851	-1.3116436	1.0
[LeftToeBase]
394	0	-87.28699493	107.1060028	-16.81682205	1.054235339	4.154136181	1.0
395	0	-87.28699493	107.1060028	-27.82155037	1.798095345	3.916799068	1.0
396	0	-87.28699493	107.1060028	-15.07425117	1.175922807e-05	-1.321374384e-05	1.0
397	0	-87.28699493	107.1060028	-3.999027729	-2.19714002e-05	-1.648256443e-06	1.0
[RightUpLeg]
394	-82.07800293	-67.51699829	-15.99599934	-24.14285851	-19.96727753	9.024374008	1.0
395	-82.07800293	-67.51699829	-15.99599934	-27.16446114	-22.81046867	16.59108543	1.0
396	-82.07800293	-67.51699829	-15.99599934	-27.27173615	-20.04089355	22.19985771	1.0
397	-82.07800293	-67.51699829	-15.99599934	-27.9758358	-19.09251976	24.25984764	1.0
[RightLeg]
394	0	-443.7049866	2.861999989	54.26634216	-13.10791779	-2.438105106	1.0
395	0	-443.7049866	2.861999989	56.24462891	-13.45283127	-2.301894665	1.0
396	0	-443.7049866	2.861999989	58.23130035	-13.81421661	-3.579189777	1.0
397	0	-443.7049866	2.861999989	63.52438354	-13.60160923	-5.209766388	1.0
[RightFoot]
394	0	-444.2770081	-29.83799934	-6.827196121	-20.44817543	9.613949776	1.0
395	0	-444.2770081	-29.83799934	-9.930556297	-22.86743546	8.473888397	1.0
396	0	-444.2770081	-29.83799934	-28.21547127	-23.84515381	1.512384176	1.0
397	0	-444.2770081	-29.83799934	-42.77400589	-22.01491928	-0.3264240921	1.0
[RightToeBase]
394	0	-87.28699493	107.1060028	-7.400372028	-0.4109202921	-6.477359295	1.0
395	0	-87.28699493	107.1060028	-21.01928139	-1.718775868	-5.380537033	1.0
396	0	-87.28699493	107.1060028	-11.27997875	-8.45294926e-06	4.629024716e-06	1.0
397	0	-87.28699493	107.1060028	-0.5358284116	2.581268518e-06	2.721719454e-07	1.0
[EndOfFile]
